<svg width="299" height="299" viewBox="0 0 299 299" fill="none" xmlns="http://www.w3.org/2000/svg">
<g clip-path="url(#clip0_2381_3)">
<rect width="299" height="299" fill="#AED6B8"/>
<path d="M62.2917 261.625C55.4396 261.625 49.5738 259.185 44.6943 254.306C39.8148 249.426 37.375 243.56 37.375 236.708V62.2917C37.375 55.4396 39.8148 49.5738 44.6943 44.6943C49.5738 39.8148 55.4396 37.375 62.2917 37.375H236.708C243.56 37.375 249.426 39.8148 254.306 44.6943C259.185 49.5738 261.625 55.4396 261.625 62.2917V236.708C261.625 243.56 259.185 249.426 254.306 254.306C249.426 259.185 243.56 261.625 236.708 261.625H62.2917ZM74.75 211.792H224.25L177.531 149.5L140.156 199.333L112.125 161.958L74.75 211.792Z" fill="#EDFFF1"/>
</g>
<defs>
<clipPath id="clip0_2381_3">
<rect width="299" height="299" fill="white"/>
</clipPath>
</defs>
</svg>
